<?xml version="1.0" encoding="UTF-8" standalone="no"?><!DOCTYPE svg PUBLIC "-//W3C//DTD SVG 1.1//EN" "http://www.w3.org/Graphics/SVG/1.1/DTD/svg11.dtd"><svg width="100%" height="100%" viewBox="0 0 17 17" version="1.1" xmlns="http://www.w3.org/2000/svg" xmlns:xlink="http://www.w3.org/1999/xlink" xml:space="preserve" xmlns:serif="http://www.serif.com/" style="fill-rule:evenodd;clip-rule:evenodd;stroke-linejoin:round;stroke-miterlimit:2;"><rect id="select-dropdown" x="0.667" y="0.16" width="16" height="16" style="fill:none;"/><path d="M6,11.493c0.189,0 0.347,-0.064 0.475,-0.192c0.128,-0.128 0.192,-0.286 0.192,-0.475c0,-0.189 -0.064,-0.347 -0.192,-0.475c-0.128,-0.128 -0.286,-0.192 -0.475,-0.192c-0.189,0 -0.347,0.064 -0.475,0.192c-0.128,0.128 -0.192,0.286 -0.192,0.475c0,0.189 0.064,0.347 0.192,0.475c0.128,0.128 0.286,0.192 0.475,0.192Zm0,-2.667c0.189,0 0.347,-0.064 0.475,-0.192c0.128,-0.128 0.192,-0.286 0.192,-0.475c0,-0.189 -0.064,-0.347 -0.192,-0.475c-0.128,-0.128 -0.286,-0.192 -0.475,-0.192c-0.189,0 -0.347,0.064 -0.475,0.192c-0.128,0.128 -0.192,0.286 -0.192,0.475c0,0.189 0.064,0.347 0.192,0.475c0.128,0.128 0.286,0.192 0.475,0.192Zm0,-2.667c0.189,0 0.347,-0.064 0.475,-0.192c0.128,-0.128 0.192,-0.286 0.192,-0.475c0,-0.189 -0.064,-0.347 -0.192,-0.475c-0.128,-0.128 -0.286,-0.192 -0.475,-0.192c-0.189,0 -0.347,0.064 -0.475,0.192c-0.128,0.128 -0.192,0.286 -0.192,0.475c0,0.189 0.064,0.347 0.192,0.475c0.128,0.128 0.286,0.192 0.475,0.192Zm2,5.333l4,0l0,-1.333l-4,0l0,1.333Zm0,-2.667l4,0l0,-1.333l-4,0l0,1.333Zm0,-2.667l4,0l0,-1.333l-4,0l0,1.333Zm-4,8c-0.367,0 -0.681,-0.131 -0.942,-0.392c-0.261,-0.261 -0.392,-0.575 -0.392,-0.942l0,-9.333c0,-0.367 0.131,-0.681 0.392,-0.942c0.261,-0.261 0.575,-0.392 0.942,-0.392l9.333,0c0.367,0 0.681,0.131 0.942,0.392c0.261,0.261 0.392,0.575 0.392,0.942l0,9.333c0,0.367 -0.131,0.681 -0.392,0.942c-0.261,0.261 -0.575,0.392 -0.942,0.392l-9.333,0Zm-0,-1.333l9.333,0l0,-9.333l-9.333,0l-0,9.333Zm0,-9.333l0,9.333l0,-9.333Z" style="fill-rule:nonzero;"/></svg>